PathFileType	4	(X/Y/Z)	C:/Users/beibeiliu/ov580/test_trc/User2\sequence.25_training_dense_right.trc
DataRate	CameraRate	NumFrames	NumMarkers	Units	OrigDataRate	OrigDataStartFrame	OrigNumFrames
120	120	8	19	mm	120	205	272
Frame#	Time	ThumbCMC			ThumbMCP			ThumbIP			ThumbTip			IndexMCP			IndexPIP			IndexTip			MiddleMCP			MiddlePIP			MiddleTip			RingMCP			RingPIP			RingTip			PinkyMCP			PinkyPIP			PinkyTip			BackHand1			BackHand2			BackHand3	
		X0	Y0	Z0	X1	Y1	Z1	X2	Y2	Z2	X3	Y3	Z3	X4	Y4	Z4	X5	Y5	Z5	X6	Y6	Z6	X7	Y7	Z7	X8	Y8	Z8	X9	Y9	Z9	X10	Y10	Z10	X11	Y11	Z11	X12	Y12	Z12	X13	Y13	Z13	X14	Y14	Z14	X15	Y15	Z15	X16	Y16	Z16	X17	Y17	Z17	X18	Y18	Z18	
204	1.7	56.0545	-19.191	94.1353	33.5292	-23.7638	68.6597	13.684	-24.2129	39.4572	0.65898	-29.6293	21.879	39.9508	-16.4307	13.2227	25.6652	-46.1158	15.3699	38.1416	-62.9336	46.828	58.5882	-29.0066	3.8844	46.1789	-60.9121	12.3155	53.8542	-60.5581	52.427	72.5754	-38.7231	-2.82842	60.3402	-66.903	7.10451	65.9091	-59.172	42.352	100.005	-36.1633	3.59664	88.9581	-43.027	-21.4867	76.9882	-42.3853	-39.9764	111.314	-16.0091	49.8147	124.487	-17.1113	79.7951	87.9133	1.5337	77.0468	
205	1.70833	55.1981	-19.6657	92.934	29.1289	-23.2173	72.5729	13.2346	-25.6275	41.3509	2.61944	-30.051	20.1301	38.9218	-17.3376	14.83	27.0536	-47.8481	16.3447	35.9731	-62.8072	42.7012	60.2059	-26.7532	6.3614	46.7149	-59.6888	12.2335	58.8933	-58.1804	54.3557	74.842	-38.8715	-3.67707	59.1262	-63.1113	4.62677	65.4802	-59.1143	40.2115	99.7373	-34.3735	6.67629	88.2924	-39.1896	-19.3103	75.9086	-39.84	-41.776	113.27	-13.3329	48.0976	122.135	-14.0341	83.1429	88.1406	2.4754	76.4369	
206	1.71667	54.3869	-17.7994	93.9798	28.8456	-22.5834	70.8949	10.5077	-24.3479	39.8728	-1.03059	-28.9035	21.8273	37.5654	-15.2836	16.4178	25.8282	-44.5788	17.0326	37.8958	-61.4906	46.5812	57.5209	-23.4241	7.48953	45.777	-58.8926	12.8148	56.703	-56.5093	53.8202	74.4971	-33.824	0.0421282	58.9359	-63.5822	8.00224	69.6064	-57.7224	43.3531	98.3181	-31.4742	5.66948	83.4023	-34.8493	-19.9969	74.465	-37.0364	-39.9499	107.466	-9.7438	50.5825	121.995	-14.1317	79.3162	86.3557	1.56513	76.8274	
207	1.725	54.355	-18.8518	99.0502	29.9068	-21.7424	73.9782	7.55913	-21.5646	44.9616	-4.35165	-26.9691	27.4219	32.1289	-12.1924	20.9663	24.2671	-43.6551	19.0161	35.1442	-58.2928	47.4599	50.2974	-24.2314	8.29942	41.9208	-55.563	15.0153	54.2869	-52.719	56.1654	70.6985	-30.5209	2.82194	55.6049	-60.7181	10.1127	65.0855	-57.586	41.8668	94.4988	-28.8011	7.69307	82.6558	-33.2013	-21.019	68.9881	-32.6895	-38.6413	106.461	-7.5722	51.9411	123.917	-12.8079	83.2766	85.9889	3.99269	82.2364	
208	1.73333	52.2256	-18.051	101.203	25.9118	-21.3428	81.1415	6.52607	-20.0589	49.7685	-8.9657	-21.9532	29.4398	27.9688	-7.83777	26.754	17.0329	-38.1218	22.7551	34.0055	-56.7594	54.8578	44.6245	-19.7055	12.3679	38.6384	-53.5886	17.4911	54.3688	-52.1773	55.6969	62.9719	-25.705	5.14773	49.5667	-52.8102	7.41927	62.249	-55.3365	42.9428	87.2522	-23.9837	4.7208	78.7423	-28.85	-16.3088	62.973	-27.808	-35.3523	101.41	-6.52517	54.064	118.292	-9.09668	81.6729	82.1792	5.08665	80.6099	
209	1.74167	50.0604	-17.6183	106.026	24.6781	-19.6738	82.7947	4.98937	-19.1528	56.2573	-11.7931	-20.3963	34.5683	25.5714	-4.65915	32.3624	15.9976	-37.4386	26.9053	30.8287	-54.8562	52.4044	44.3054	-15.5485	16.2703	35.3069	-50.8457	20.4803	49.372	-48.4372	58.4086	58.4046	-22.1353	6.50215	47.5605	-54.1424	12.5919	62.486	-51.0959	46.2901	82.7024	-19.9731	7.55518	67.7891	-22.563	-16.1904	56.6283	-21.7935	-33.9838	101.064	-5.08272	51.7933	117.857	-10.713	81.8299	81.8416	4.47397	83.2239	
210	1.75	53.9832	-18.4925	106.268	25.6962	-18.4729	83.6617	3.92011	-17.7827	56.7682	-12.181	-21.376	42.5061	20.3818	-4.2813	33.8506	12.8977	-33.7903	28.1288	28.2481	-53.0698	59.1629	38.246	-15.0981	16.0638	28.0131	-46.9007	24.9463	47.9435	-47.7898	58.1523	56.7629	-17.5367	8.75954	41.8032	-47.1052	12.9895	55.1588	-48.4439	45.8619	82.4599	-17.1176	10.9935	64.303	-18.7891	-12.0805	49.8194	-18.1063	-31.3545	96.0737	-1.74179	56.9745	116.408	-6.54399	85.9595	79.4574	7.46929	88.6238	
211	1.75833	48.7788	-16.8072	108.753	20.8425	-18.9052	91.3797	-1.79396	-15.9427	62.1419	-17.4805	-18.6629	44.1934	17.682	-3.29086	35.5302	9.67238	-33.1675	31.0419	27.5826	-51.3838	59.8599	36.1936	-8.54242	21.0233	28.0935	-43.1649	23.449	46.894	-47.0456	58.6842	50.5761	-16.0615	9.79633	42.4625	-46.454	11.8847	58.0067	-47.6137	44.7631	78.3771	-13.1242	9.50521	63.3594	-15.06	-7.20304	47.5646	-13.398	-31.7343	93.8173	2.21359	56.5691	115.844	-7.79736	84.7675	78.479	9.46716	87.9013	
